<svg width="896px" height="329px" viewBox="-178.42424242424244 96.48484848484847 868.8484848484849 319.03030303030306" class="css-np3qrs" style="position: absolute; top: 0px; left: 0px; width: 896px; height: 329px;"><defs><pattern id="o_emiagfm8i_2" x="0" y="0" width="31.03030303030303" height="31.03030303030303" patternUnits="userSpaceOnUse" class="css-1e1xezv"><rect x="0" y="0" width="31.03030303030303" height="31.03030303030303"></rect><circle cx="0" cy="0" r="1.4545454545454546"></circle><circle cx="31.03030303030303" cy="0" r="1.4545454545454546"></circle><circle cx="31.03030303030303" cy="31.03030303030303" r="1.4545454545454546"></circle><circle cx="0" cy="31.03030303030303" r="1.4545454545454546"></circle></pattern></defs><rect fill="url(#o_emiagfm8i_2)" stroke-width="0.9696969696969697" x="0" y="0" width="512" height="512" class="css-f3jo1l"></rect><svg xmlns="http://www.w3.org/2000/svg" width="512" height="512" style="overflow: visible;" viewBox="0 0 512 512" data-svgdocument="" id="_eg90l3bab_1" class="fl-svgdocument" x="0" y="0"><rect data-uid="o_emiagfm8i_4" data-fl-background="" x="0" y="0" width="512" height="512" fill="#e4866a"></rect><path id="_eg90l3bab_209" transform="matrix(1.4435393810272217, 0, 0, 1.4435393810272217, 189.95413208007812, 152.92027282714844)" fill="#7dccab" data-type="circle" data-cx="50" data-cy="50" data-r="50" d="M50,50m-50,0a50,50 0 1, 0 100,0a50,50 0 1, 0 -100,0" data-uid="o_emiagfm8i_5"></path><path id="_eg90l3bab_128" d="M8,4 C5.789,4 4,2.211 4,0 C4,2.211 2.211,4 0,4 C2.211,4 4,5.789 4,8 C4,5.789 5.789,4 8,4 L8,4 Z" transform="matrix(2.79671573638916, 0, 0, 2.79671573638916, 180.48867797851562, 143.34963989257812)" stroke="#1e252a" stroke-width="2" stroke-linecap="round" fill="#ffffff" stroke-linejoin="round" data-uid="o_emiagfm8i_6"></path><path id="_eg90l3bab_129" d="M28.1744,44 L50.0004,44" transform="matrix(2.79671573638916, 0, 0, 2.79671573638916, 180.48867797851562, 143.34963989257812)" stroke="#1e252a" stroke-width="2" stroke-linecap="round" fill="#1e252a" data-uid="o_emiagfm8i_7"></path><path id="_eg90l3bab_130" d="M8,44 L21.943,44" stroke="#1e252a" stroke-width="2" transform="matrix(2.79671573638916, 0, 0, 2.79671573638916, 180.48867797851562, 143.34963989257812)" stroke-linecap="round" fill="#1e252a" data-uid="o_emiagfm8i_8"></path><path id="_eg90l3bab_131" d="M7.7371,32 L4.0001,32" stroke="#1e252a" stroke-width="2" transform="matrix(2.79671573638916, 0, 0, 2.79671573638916, 180.48867797851562, 143.34963989257812)" stroke-linecap="round" fill="#1e252a" data-uid="o_emiagfm8i_9"></path><path id="_eg90l3bab_132" d="M34,32 L15,32" stroke="#1e252a" stroke-width="2" stroke-linecap="round" transform="matrix(2.79671573638916, 0, 0, 2.79671573638916, 180.48867797851562, 143.34963989257812)" fill="#1e252a" data-uid="o_emiagfm8i_10"></path><path id="_eg90l3bab_133" d="M42,38 L21,38" stroke="#1e252a" stroke-width="2" stroke-linecap="round" transform="matrix(2.79671573638916, 0, 0, 2.79671573638916, 180.48867797851562, 143.34963989257812)" fill="#1e252a" data-uid="o_emiagfm8i_11"></path><path id="_eg90l3bab_134" d="M30,49 L13,49" stroke="#1e252a" stroke-width="2" stroke-linecap="round" transform="matrix(2.79671573638916, 0, 0, 2.79671573638916, 180.48867797851562, 143.34963989257812)" fill="#1e252a" data-uid="o_emiagfm8i_12"></path><path id="_eg90l3bab_135" d="M33,26 L23,26" stroke="#1e252a" stroke-width="2" stroke-linecap="round" transform="matrix(2.79671573638916, 0, 0, 2.79671573638916, 180.48867797851562, 143.34963989257812)" fill="#1e252a" data-uid="o_emiagfm8i_13"></path><path id="_eg90l3bab_136" d="M14,26 L4,26" stroke="#1e252a" stroke-width="2" stroke-linecap="round" transform="matrix(2.79671573638916, 0, 0, 2.79671573638916, 180.48867797851562, 143.34963989257812)" fill="#1e252a" data-uid="o_emiagfm8i_14"></path><path id="_eg90l3bab_137" d="M32,15 L22,15" stroke="#1e252a" stroke-width="2" stroke-linecap="round" transform="matrix(2.79671573638916, 0, 0, 2.79671573638916, 180.48867797851562, 143.34963989257812)" fill="#1e252a" data-uid="o_emiagfm8i_15"></path><path id="_eg90l3bab_138" d="M54,32 L42,32" stroke="#1e252a" stroke-width="2" stroke-linecap="round" transform="matrix(2.79671573638916, 0, 0, 2.79671573638916, 180.48867797851562, 143.34963989257812)" fill="#1e252a" data-uid="o_emiagfm8i_16"></path><path id="_eg90l3bab_139" d="M25.6229,9 L12.9999,9" stroke="#1e252a" stroke-width="2" stroke-linecap="round" transform="matrix(2.79671573638916, 0, 0, 2.79671573638916, 180.48867797851562, 143.34963989257812)" fill="#1e252a" data-uid="o_emiagfm8i_17"></path><path id="_eg90l3bab_140" d="M38,9 L32,9" stroke="#1e252a" stroke-width="2" stroke-linecap="round" transform="matrix(2.79671573638916, 0, 0, 2.79671573638916, 180.48867797851562, 143.34963989257812)" fill="#1e252a" data-uid="o_emiagfm8i_18"></path><path id="_eg90l3bab_141" d="M30.2629,21 L52.9999,21" stroke="#1e252a" stroke-width="2" stroke-linecap="round" transform="matrix(2.79671573638916, 0, 0, 2.79671573638916, 180.48867797851562, 143.34963989257812)" fill="#1e252a" data-uid="o_emiagfm8i_19"></path><path id="_eg90l3bab_142" d="M5,21 L23.661,21" transform="matrix(2.79671573638916, 0, 0, 2.79671573638916, 180.48867797851562, 143.34963989257812)" fill="#1e252a" stroke="#1e252a" stroke-width="2" stroke-linecap="round" data-uid="o_emiagfm8i_20"></path><path id="_eg90l3bab_152" d="M40,68.5c-15.7,0-28.5-12.8-28.5-28.5S24.3,11.5,40,11.5S68.5,24.3,68.5,40S55.7,68.5,40,68.5z M40,13.5   c-14.6,0-26.5,11.9-26.5,26.5S25.4,66.5,40,66.5S66.5,54.6,66.5,40S54.6,13.5,40,13.5z" transform="matrix(2.63038969039917, 0, 0, 2.63038969039917, 155.8759002685547, 119.88163757324219)" fill="#1e252a" data-uid="o_emiagfm8i_21"></path><path id="_eg90l3bab_123" d="M53,52 C53,52.552 52.552,53 52,53 C51.448,53 51,52.552 51,52 C51,51.448 51.448,51 52,51 C52.552,51 53,51.448 53,52" transform="matrix(2.79671573638916, 0, 0, 2.79671573638916, 180.48867797851562, 143.34963989257812)" stroke="none" fill="#1e252a" stroke-width="1" data-uid="o_emiagfm8i_22"></path><path id="_eg90l3bab_124" d="M57,9 C57,9.552 56.552,10 56,10 C55.448,10 55,9.552 55,9 C55,8.448 55.448,8 56,8 C56.552,8 57,8.448 57,9" stroke="none" transform="matrix(2.79671573638916, 0, 0, 2.79671573638916, 180.48867797851562, 143.34963989257812)" fill="#1e252a" stroke-width="1" data-uid="o_emiagfm8i_23"></path><path id="_eg90l3bab_125" d="M7,56 C7,56.552 6.552,57 6,57 C5.448,57 5,56.552 5,56 C5,55.448 5.448,55 6,55 C6.552,55 7,55.448 7,56" stroke="none" transform="matrix(2.79671573638916, 0, 0, 2.79671573638916, 180.48867797851562, 143.34963989257812)" fill="#1e252a" stroke-width="1" data-uid="o_emiagfm8i_24"></path><path id="_eg90l3bab_126" d="M50,8 C50,11.314 47.314,14 44,14 C40.686,14 38,11.314 38,8 C38,4.686 40.686,2 44,2 C47.314,2 50,4.686 50,8 L50,8 Z" transform="matrix(2.79671573638916, 0, 0, 2.79671573638916, 180.48867797851562, 143.34963989257812)" stroke="#1e252a" stroke-width="2" fill="#ffffff" data-uid="o_emiagfm8i_25"></path><path id="_eg90l3bab_127" d="M43,53 C43,55.209 41.209,57 39,57 C36.791,57 35,55.209 35,53 C35,50.791 36.791,49 39,49 C41.209,49 43,50.791 43,53 L43,53 Z" stroke="#1e252a" stroke-width="2" transform="matrix(2.79671573638916, 0, 0, 2.79671573638916, 180.48867797851562, 143.34963989257812)" fill="#ffffff" data-uid="o_emiagfm8i_26"></path><path text="Sabik" fill="#1e252a" transform="matrix(1.166298508644104, 0, 0, 1.166298508644104, 256.0023193359375, 358.23291015625)" space="preserve" text-anchor="middle" offset="0.5" font-scale="contain" font-size="48" font-family="Fredoka One" data-fl-textpath="" id="_eg90l3bab_225" font-weight="400" font-style="normal" data-uid="o_emiagfm8i_27" d="M-58.608-4.42L-59.038-4.94Q-60.288-6.48 -60.288-7.7Q-60.288-8.93 -58.228-10.94L-58.228-10.94Q-57.028-12.1 -55.678-12.1Q-54.338-12.1 -51.938-9.7L-51.938-9.7Q-51.268-8.88 -50.018-8.14Q-48.768-7.39 -47.708-7.39L-47.708-7.39Q-43.248000000000005-7.39 -43.248000000000005-11.04L-43.248000000000005-11.04Q-43.248000000000005-12.14 -44.468-12.89Q-45.698-13.63 -47.518-13.97Q-49.348-14.3 -51.458-15.05Q-53.568-15.79 -55.388-16.8Q-57.218-17.81 -58.438-19.99Q-59.668-22.18 -59.668-25.25L-59.668-25.25Q-59.668-29.47 -56.518-32.62Q-53.378-35.76 -47.948-35.76L-47.948-35.76Q-45.068-35.76 -42.698-35.02Q-40.318-34.27 -39.408-33.5L-39.408-33.5L-38.208-32.59Q-36.718-31.2 -36.718-30.24Q-36.718-29.28 -37.867999999999995-27.6L-37.867999999999995-27.6Q-39.507999999999996-25.2 -41.227999999999994-25.2L-41.227999999999994-25.2Q-42.238-25.2 -43.727999999999994-26.16L-43.727999999999994-26.16Q-43.867999999999995-26.26 -44.278-26.64Q-44.688-27.02 -45.028-27.26L-45.028-27.26Q-46.028-27.89 -47.588-27.89Q-49.147999999999996-27.89 -50.188-27.14Q-51.218-26.4 -51.218-25.08Q-51.218-23.76 -49.988-22.94Q-48.768-22.13 -46.948-21.84Q-45.117999999999995-21.55 -42.958-20.95Q-40.798-20.35 -38.977999999999994-19.49Q-37.147999999999996-18.62 -35.928-16.49Q-34.708-14.35 -34.708-11.23Q-34.708-8.11 -35.948-5.74Q-37.198-3.36 -39.218-2.06L-39.218-2.06Q-43.108000000000004 0.48 -47.518 0.48L-47.518 0.48Q-49.778 0.48 -51.788-0.07Q-53.808-0.62 -55.058-1.44L-55.058-1.44Q-57.598-2.98 -58.608-4.42L-58.608-4.42ZM-15.163999999999998-22.61L-15.163999999999998-22.61Q-14.883999999999997-25.3 -11.373999999999999-25.3L-11.373999999999999-25.3Q-9.503999999999998-25.3 -8.593999999999998-25.01Q-7.6839999999999975-24.72 -7.323999999999998-24Q-6.963999999999999-23.28 -6.883999999999997-22.73Q-6.8139999999999965-22.18 -6.8139999999999965-21.07L-6.8139999999999965-21.07L-6.8139999999999965-4.27Q-6.8139999999999965-3.17 -6.883999999999997-2.62Q-6.963999999999999-2.06 -7.293999999999997-1.34L-7.293999999999997-1.34Q-7.963999999999999-0.1 -10.583999999999996-0.1Q-13.203999999999997-0.1 -14.083999999999996-0.74Q-14.973999999999997-1.39 -15.123999999999999-2.64L-15.123999999999999-2.64Q-16.894-0.1 -21.043999999999997-0.1Q-25.203999999999997-0.1 -28.753999999999998-3.89Q-32.303999999999995-7.68 -32.303999999999995-12.7Q-32.303999999999995-17.71 -28.723999999999997-21.48Q-25.153999999999996-25.25 -20.884-25.25L-20.884-25.25Q-19.244-25.25 -17.903999999999996-24.67Q-16.563999999999997-24.1 -16.034-23.59Q-15.503999999999998-23.09 -15.163999999999998-22.61ZM-23.903999999999996-12.62Q-23.903999999999996-11.04 -22.653999999999996-9.77Q-21.403999999999996-8.5 -19.634-8.5Q-17.854-8.5 -16.683999999999997-9.79Q-15.503999999999998-11.09 -15.503999999999998-12.65Q-15.503999999999998-14.21 -16.633999999999997-15.55Q-17.763999999999996-16.9 -19.653999999999996-16.9Q-21.554-16.9 -22.723999999999997-15.55Q-23.903999999999996-14.21 -23.903999999999996-12.62ZM 10.894000000000002-25.25L 10.894000000000002-25.25Q 15.164000000000001-25.25  18.744000000000003-21.46Q 22.324-17.66  22.324-12.65Q 22.324-7.63  18.764000000000003-3.86Q 15.214000000000002-0.1  11.134000000000004-0.1Q 7.054000000000002-0.1  5.324000000000003-2.4L 5.324000000000003-2.4Q 4.944000000000003-0.05  1.2040000000000024-0.05L 1.2040000000000024-0.05Q-1.8259999999999974-0.05 -2.4959999999999973-1.34L-2.4959999999999973-1.34Q-2.835999999999997-2.06 -2.905999999999997-2.62Q-2.9759999999999973-3.17 -2.9759999999999973-4.27L-2.9759999999999973-4.27L-2.9759999999999973-32.93Q-2.9759999999999973-34.03 -2.905999999999997-34.58Q-2.835999999999997-35.14 -2.4959999999999973-35.81L-2.4959999999999973-35.81Q-1.8259999999999974-37.1  1.2440000000000024-37.1L 1.2440000000000024-37.1Q 4.274000000000003-37.1  4.894000000000002-35.81L 4.894000000000002-35.81Q 5.2840000000000025-35.09  5.354000000000003-34.54Q 5.424000000000003-33.98  5.424000000000003-32.88L 5.424000000000003-32.88L 5.424000000000003-22.9Q 7.344000000000003-25.25  10.894000000000002-25.25ZM 6.694000000000003-9.74Q 7.874000000000002-8.45  9.644000000000002-8.45Q 11.424000000000003-8.45  12.674000000000003-9.74Q 13.924000000000003-11.04  13.924000000000003-12.62Q 13.924000000000003-14.21  12.764000000000003-15.53Q 11.614000000000004-16.85  9.694000000000003-16.85Q 7.774000000000003-16.85  6.644000000000002-15.5Q 5.524000000000003-14.16  5.524000000000003-12.6Q 5.524000000000003-11.04  6.694000000000003-9.74ZM 25.440000000000005-4.22L 25.440000000000005-21.07Q 25.440000000000005-22.18  25.51-22.73Q 25.580000000000002-23.28  25.92-24L 25.92-24Q 26.590000000000003-25.25  29.660000000000004-25.25L 29.660000000000004-25.25Q 31.970000000000002-25.25  32.93000000000001-24.43L 32.93000000000001-24.43Q 33.74-23.76  33.790000000000006-22.37L 33.790000000000006-22.37Q 33.84-21.89  33.84-20.98L 33.84-20.98L 33.84-4.18Q 33.84-3.07  33.77-2.52Q 33.7-1.97  33.31-1.25L 33.31-1.25Q 32.690000000000005 0  29.620000000000005 0L 29.620000000000005 0Q 26.590000000000003 0  25.92-1.3L 25.92-1.3Q 25.580000000000002-2.02  25.51-2.54Q 25.440000000000005-3.07  25.440000000000005-4.22L 25.440000000000005-4.22ZM 33.34-29.98Q 32.980000000000004-29.28  32.06-28.99Q 31.150000000000002-28.7  29.640000000000004-28.7Q 28.130000000000003-28.7  27.220000000000002-28.99Q 26.300000000000004-29.28  25.940000000000005-30Q 25.580000000000002-30.72  25.51-31.27Q 25.440000000000005-31.82  25.440000000000005-32.93Q 25.440000000000005-34.03  25.51-34.58Q 25.580000000000002-35.14  25.92-35.81L 25.92-35.81Q 26.590000000000003-37.1  29.660000000000004-37.1L 29.660000000000004-37.1Q 32.690000000000005-37.1  33.31-35.81L 33.31-35.81Q 33.7-35.09  33.77-34.54Q 33.84-33.98  33.84-32.88Q 33.84-31.78  33.77-31.22Q 33.7-30.67  33.34-29.98ZM 57.31-16.7L 52.56-12.67L 58.940000000000005-7.39Q 60.14-6.38  60.46000000000001-5.86Q 60.77000000000001-5.33  60.77000000000001-4.85L 60.77000000000001-4.85Q 60.77000000000001-3.7  59.28-1.73L 59.28-1.73Q 57.650000000000006 0.29  56.400000000000006 0.29L 56.400000000000006 0.29Q 55.34 0.29  53.470000000000006-1.1L 53.470000000000006-1.1L 52.99000000000001-1.44Q 51.89-2.35  49.580000000000005-4.63Q 47.28-6.91  46.080000000000005-7.87L 46.080000000000005-7.87L 46.080000000000005-4.18Q 46.080000000000005-3.07  46.010000000000005-2.52Q 45.940000000000005-1.97  45.550000000000004-1.25L 45.550000000000004-1.25Q 44.93000000000001 0  41.86000000000001 0L 41.86000000000001 0Q 38.830000000000005 0  38.160000000000004-1.3L 38.160000000000004-1.3Q 37.82000000000001-2.02  37.75000000000001-2.57Q 37.68000000000001-3.12  37.68000000000001-4.22L 37.68000000000001-4.22L 37.68000000000001-32.98Q 37.68000000000001-34.08  37.75000000000001-34.63Q 37.82000000000001-35.18  38.160000000000004-35.9L 38.160000000000004-35.9Q 38.830000000000005-37.2  41.900000000000006-37.2L 41.900000000000006-37.2Q 44.21000000000001-37.2  45.17-36.38L 45.17-36.38Q 45.980000000000004-35.71  46.03-34.27L 46.03-34.27Q 46.080000000000005-33.84  46.080000000000005-32.93L 46.080000000000005-32.93L 46.080000000000005-17.71Q 46.940000000000005-18.43  48.7-20.16Q 50.45-21.89  51.31-22.61L 51.31-22.61L 51.89-22.99Q 53.57000000000001-24.29  54.77000000000001-24.29Q 55.970000000000006-24.29  57.53-22.34Q 59.09-20.4  59.09-19.3Q 59.09-18.19  57.31-16.7L 57.31-16.7Z"></path></svg><path d="M-178.42424242424244 96.48484848484847h868.8484848484849v319.03030303030306h-868.8484848484849z M0 0v512h512v-512z" class="css-1m35ybi" style=""></path><g class="css-0"><path class="_sw1 css-jzojre" d="M0.000015765790521982126 0.000014364511116582435L 0.000015765790521982126 0.000014364511116582435L0.000015765790521982126 0.000014364511116582435L0.000015765790521982126 0.000014364511116582435 Z" fill="transparent" stroke="red"></path><path class="_sw1 css-jzojre" d="M189.95413208007812 152.92027282714844L 334.3080701828003 152.92027282714844L334.3080701828003 297.2742109298706L189.95413208007812 297.2742109298706 Z" fill="transparent" stroke="red"></path><path class="_sw1 css-jzojre" d="M177.69196224212646 140.55292415618896L 205.65911960601807 140.55292415618896L205.65911960601807 168.52008152008057L177.69196224212646 168.52008152008057 Z" fill="transparent" stroke="red"></path><path class="_sw1 css-jzojre" d="M256.4877510072183 263.608416557312L 323.1223007398694 263.608416557312L323.1223007398694 269.20184803009033L256.4877510072183 269.20184803009033 Z" fill="transparent" stroke="red"></path><path class="_sw1 css-jzojre" d="M200.06568813323975 263.608416557312L 244.6537293375659 263.608416557312L244.6537293375659 269.20184803009033L200.06568813323975 269.20184803009033 Z" fill="transparent" stroke="red"></path><path class="_sw1 css-jzojre" d="M188.87910523905975 230.0478277206421L 204.9238633867185 230.0478277206421L204.9238633867185 235.6412591934204L188.87910523905975 235.6412591934204 Z" fill="transparent" stroke="red"></path><path class="_sw1 css-jzojre" d="M219.64269828796387 230.0478277206421L 278.37372875213623 230.0478277206421L278.37372875213623 235.6412591934204L219.64269828796387 235.6412591934204 Z" fill="transparent" stroke="red"></path><path class="_sw1 css-jzojre" d="M236.42299270629883 246.82812213897705L 300.7474546432495 246.82812213897705L300.7474546432495 252.42155361175537L236.42299270629883 252.42155361175537 Z" fill="transparent" stroke="red"></path><path class="_sw1 css-jzojre" d="M214.04926681518555 277.5919952392578L 267.1868658065796 277.5919952392578L267.1868658065796 283.18542671203613L214.04926681518555 283.18542671203613 Z" fill="transparent" stroke="red"></path><path class="_sw1 css-jzojre" d="M242.01642417907715 213.26753330230713L 275.57701301574707 213.26753330230713L275.57701301574707 218.86096477508545L242.01642417907715 218.86096477508545 Z" fill="transparent" stroke="red"></path><path class="_sw1 css-jzojre" d="M188.8788251876831 213.26753330230713L 222.43941402435303 213.26753330230713L222.43941402435303 218.86096477508545L188.8788251876831 218.86096477508545 Z" fill="transparent" stroke="red"></path><path class="_sw1 css-jzojre" d="M239.219708442688 182.50366020202637L 272.7802972793579 182.50366020202637L272.7802972793579 188.0970916748047L239.219708442688 188.0970916748047 Z" fill="transparent" stroke="red"></path><path class="_sw1 css-jzojre" d="M295.1540231704712 230.0478277206421L 334.30804347991943 230.0478277206421L334.30804347991943 235.6412591934204L295.1540231704712 235.6412591934204 Z" fill="transparent" stroke="red"></path><path class="_sw1 css-jzojre" d="M214.0489867638089 165.7233657836914L 254.9453613824353 165.7233657836914L254.9453613824353 171.31679725646973L214.0489867638089 171.31679725646973 Z" fill="transparent" stroke="red"></path><path class="_sw1 css-jzojre" d="M267.1868658065796 165.7233657836914L 289.56059169769287 165.7233657836914L289.56059169769287 171.31679725646973L267.1868658065796 171.31679725646973 Z" fill="transparent" stroke="red"></path><path class="_sw1 css-jzojre" d="M262.32868921952286 199.28395462036133L 331.5110503593096 199.28395462036133L331.5110503593096 204.87738609313965L262.32868921952286 204.87738609313965 Z" fill="transparent" stroke="red"></path><path class="_sw1 css-jzojre" d="M191.67554092407227 199.28395462036133L 249.4584827905819 199.28395462036133L249.4584827905819 204.87738609313965L191.67554092407227 204.87738609313965 Z" fill="transparent" stroke="red"></path><path class="_sw1 css-jzojre" d="M186.12538170814514 150.13111901283264L 336.0575940608978 150.13111901283264L336.0575940608978 300.0633313655853L186.12538170814514 300.0633313655853 Z" fill="transparent" stroke="red"></path><path class="_sw1 css-jzojre" d="M321.7228226661682 284.5837845802307L 330.1129698753357 284.5837845802307L330.1129698753357 292.9739317893982L321.7228226661682 292.9739317893982 Z" fill="transparent" stroke="red"></path><path class="_sw1 css-jzojre" d="M332.90968561172485 164.32500791549683L 341.29983282089233 164.32500791549683L341.29983282089233 172.7151551246643L332.90968561172485 172.7151551246643 Z" fill="transparent" stroke="red"></path><path class="_sw1 css-jzojre" d="M193.07389879226685 295.77064752578735L 201.46404600143433 295.77064752578735L201.46404600143433 304.16079473495483L193.07389879226685 304.16079473495483 Z" fill="transparent" stroke="red"></path><path class="_sw1 css-jzojre" d="M283.96716022491455 146.14635562896729L 323.1211805343628 146.14635562896729L323.1211805343628 185.30037593841553L283.96716022491455 185.30037593841553 Z" fill="transparent" stroke="red"></path><path class="_sw1 css-jzojre" d="M275.57701301574707 277.5919952392578L 303.5441703796387 277.5919952392578L303.5441703796387 305.5591526031494L275.57701301574707 305.5591526031494 Z" fill="transparent" stroke="red"></path><path class="_sw1 css-jzojre" d="M185.6885169467655 314.8466047448742L 326.8782802401288 314.8466047448742L326.8782802401288 358.7927329065101L185.6885169467655 358.7927329065101 Z" fill="transparent" stroke="red"></path></g></svg>
